<svg width="165" height="164" viewBox="0 0 165 164" fill="none" xmlns="http://www.w3.org/2000/svg">
<path d="M80.0006 121.167C103.013 121.167 121.667 102.513 121.667 79.5006C121.667 56.4888 103.013 37.834 80.0006 37.834C56.9888 37.834 38.334 56.4888 38.334 79.5006C38.334 102.513 56.9888 121.167 80.0006 121.167Z" fill="url(#paint0_linear_4010_3968)"/>
<g filter="url(#filter0_f_4010_3968)">
<path d="M82.5353 109.934C97.9432 109.934 110.434 97.4432 110.434 82.0353C110.434 66.6273 97.9432 54.1367 82.5353 54.1367C67.1273 54.1367 54.6367 66.6273 54.6367 82.0353C54.6367 97.4432 67.1273 109.934 82.5353 109.934Z" fill="url(#paint1_linear_4010_3968)"/>
</g>
<path fill-rule="evenodd" clip-rule="evenodd" d="M52.4979 62.3187C53.195 62.3187 53.7601 61.7536 53.7601 61.0565C53.7601 60.3594 53.195 59.7943 52.4979 59.7943C51.8008 59.7943 51.2357 60.3594 51.2357 61.0565C51.2357 61.7536 51.8008 62.3187 52.4979 62.3187ZM52.4979 63.2654C53.7178 63.2654 54.7068 62.2764 54.7068 61.0565C54.7068 59.8366 53.7178 58.8477 52.4979 58.8477C51.278 58.8477 50.2891 59.8366 50.2891 61.0565C50.2891 62.2764 51.278 63.2654 52.4979 63.2654Z" fill="white"/>
<path fill-rule="evenodd" clip-rule="evenodd" d="M48.5135 101.45C49.2106 101.45 49.7757 100.884 49.7757 100.187C49.7757 99.4901 49.2106 98.9253 48.5135 98.9253C47.8165 98.9253 47.2514 99.4901 47.2514 100.187C47.2514 100.884 47.8165 101.45 48.5135 101.45ZM48.5135 102.396C49.7335 102.396 50.7224 101.407 50.7224 100.187C50.7224 98.9673 49.7335 97.9785 48.5135 97.9785C47.2936 97.9785 46.3047 98.9673 46.3047 100.187C46.3047 101.407 47.2936 102.396 48.5135 102.396Z" fill="white"/>
<path fill-rule="evenodd" clip-rule="evenodd" d="M107.209 48.1878C107.906 48.1878 108.471 47.6227 108.471 46.9256C108.471 46.2286 107.906 45.6635 107.209 45.6635C106.512 45.6635 105.947 46.2286 105.947 46.9256C105.947 47.6227 106.512 48.1878 107.209 48.1878ZM107.209 49.1345C108.429 49.1345 109.418 48.1456 109.418 46.9256C109.418 45.7057 108.429 44.7168 107.209 44.7168C105.989 44.7168 105 45.7057 105 46.9256C105 48.1456 105.989 49.1345 107.209 49.1345Z" fill="white"/>
<path d="M53.6928 44.7865C53.7856 44.4019 54.3327 44.4019 54.4255 44.7865L54.738 46.0809C54.7712 46.2183 54.8785 46.3257 55.0159 46.3589L56.3103 46.6713C56.6949 46.7641 56.6949 47.3112 56.3103 47.404L55.0159 47.7165C54.8785 47.7497 54.7712 47.857 54.738 47.9944L54.4255 49.2889C54.3327 49.6735 53.7856 49.6735 53.6928 49.2889L53.3803 47.9944C53.3471 47.857 53.2398 47.7497 53.1024 47.7165L51.808 47.404C51.4234 47.3112 51.4234 46.7641 51.808 46.6713L53.1024 46.3589C53.2398 46.3257 53.3471 46.2183 53.3803 46.0809L53.6928 44.7865Z" fill="white"/>
<path d="M111.99 57.9744C112.091 57.5528 112.691 57.5528 112.793 57.9744L113.135 59.3932C113.172 59.5439 113.289 59.6615 113.44 59.6979L114.859 60.0404C115.28 60.1421 115.28 60.7418 114.859 60.8435L113.44 61.186C113.289 61.2224 113.172 61.34 113.135 61.4907L112.793 62.9096C112.691 63.3311 112.091 63.3311 111.99 62.9096L111.647 61.4907C111.611 61.34 111.493 61.2224 111.342 61.186L109.923 60.8435C109.502 60.7418 109.502 60.1421 109.923 60.0404L111.342 59.6979C111.493 59.6615 111.611 59.5439 111.647 59.3932L111.99 57.9744Z" fill="url(#paint2_linear_4010_3968)"/>
<path d="M49.938 109.659C50.4177 109.582 50.8006 110.053 50.6273 110.507L49.4574 113.57C49.2841 114.024 48.6844 114.12 48.378 113.743L46.31 111.198C46.0035 110.821 46.2202 110.254 46.6999 110.177L49.938 109.659Z" fill="url(#paint3_linear_4010_3968)"/>
<path d="M106.442 102.69C106.322 102.219 106.757 101.795 107.224 101.927L110.382 102.814C110.849 102.945 110.999 103.534 110.651 103.873L108.305 106.163C107.957 106.503 107.372 106.338 107.252 105.868L106.442 102.69Z" fill="url(#paint4_linear_4010_3968)"/>
<g filter="url(#filter1_f_4010_3968)">
<path d="M102.112 111.553C102.112 113.789 91.507 115.601 78.4258 115.601C65.3447 115.601 54.7402 113.789 54.7402 111.553C54.7402 109.318 65.3447 107.506 78.4258 107.506C91.507 107.506 102.112 109.318 102.112 111.553Z" fill="url(#paint5_radial_4010_3968)"/>
</g>
<g filter="url(#filter2_i_4010_3968)">
<path d="M78.8866 53.4452L63.4595 56.1653C62.2202 56.3839 61.3927 57.5657 61.6112 58.8051L65.4992 80.8555C65.7178 82.0949 66.8996 82.9225 68.139 82.7036L83.5659 79.9837C84.8054 79.7652 85.6329 78.5833 85.4145 77.3439L81.5264 55.2935C81.3076 54.0542 80.1257 53.2266 78.8866 53.4452Z" fill="url(#paint6_linear_4010_3968)"/>
</g>
<path d="M79.1089 64.7809L67.125 66.894C66.7214 66.9652 66.452 67.35 66.5231 67.7536L66.5235 67.7559C66.5947 68.1595 66.9795 68.4289 67.383 68.3578L79.3672 66.2447C79.7705 66.1735 80.04 65.7887 79.969 65.3851L79.9687 65.3828C79.8973 64.9792 79.5125 64.7098 79.1089 64.7809Z" fill="url(#paint7_linear_4010_3968)"/>
<path d="M80.9327 75.078L69.0518 77.1729C68.6517 77.2436 68.3833 77.6175 68.4522 78.0084L68.4526 78.011C68.5215 78.4019 68.9018 78.6617 69.3018 78.591L81.1827 76.4961C81.5831 76.4255 81.8512 76.0515 81.7824 75.6606L81.782 75.6581C81.7132 75.2671 81.3327 75.0073 80.9327 75.078Z" fill="url(#paint8_linear_4010_3968)"/>
<path d="M79.9818 69.6912L68.1006 71.7862C67.7005 71.8568 67.4321 72.2307 67.501 72.6217L67.5014 72.6242C67.5703 73.0152 67.9506 73.2749 68.3506 73.2043L80.2318 71.1094C80.6318 71.0387 80.9002 70.6646 80.8314 70.2737L80.831 70.2714C80.7618 69.8804 80.3818 69.6207 79.9818 69.6912Z" fill="url(#paint9_linear_4010_3968)"/>
<path d="M70.1614 58.4946L66.6593 59.1121C65.8836 59.2489 65.3656 59.9886 65.5024 60.7643L65.6737 61.7362C65.8105 62.512 66.5503 63.0299 67.326 62.8931L70.8281 62.2756C71.6037 62.1389 72.1219 61.3991 71.9849 60.6234L71.8135 59.6515C71.6769 58.8758 70.9371 58.3578 70.1614 58.4946Z" fill="#A259FF"/>
<g filter="url(#filter3_i_4010_3968)">
<path d="M97.2716 59.5273H76.8608C75.9097 59.5273 75.1387 60.2984 75.1387 61.2495V70.8433C75.1387 71.7944 75.9097 72.5654 76.8608 72.5654H97.2716C98.2227 72.5654 98.9937 71.7944 98.9937 70.8433V61.2495C98.9937 60.2984 98.2227 59.5273 97.2716 59.5273Z" fill="url(#paint10_linear_4010_3968)"/>
</g>
<path d="M80.175 68.0243C81.2685 68.0243 82.1551 67.1378 82.1551 66.0443C82.1551 64.9509 81.2685 64.0645 80.175 64.0645C79.0815 64.0645 78.1953 64.9509 78.1953 66.0443C78.1953 67.1378 79.0815 68.0243 80.175 68.0243Z" fill="white"/>
<path d="M87.2516 68.0243C88.345 68.0243 89.2313 67.1378 89.2313 66.0443C89.2313 64.9509 88.345 64.0645 87.2516 64.0645C86.1581 64.0645 85.2715 64.9509 85.2715 66.0443C85.2715 67.1378 86.1581 68.0243 87.2516 68.0243Z" fill="white"/>
<path d="M94.3277 68.0243C95.4212 68.0243 96.3074 67.1378 96.3074 66.0443C96.3074 64.9509 95.4212 64.0645 94.3277 64.0645C93.2343 64.0645 92.3477 64.9509 92.3477 66.0443C92.3477 67.1378 93.2343 68.0243 94.3277 68.0243Z" fill="white"/>
<path fill-rule="evenodd" clip-rule="evenodd" d="M76.4555 93.9983C76.6266 93.0276 77.5519 92.3798 78.5226 92.5508L88.7179 94.3486C90.111 94.5943 91.37 95.241 92.2624 96.1758C93.1545 97.1099 93.7588 98.4378 93.4997 99.9081C93.2403 101.378 92.2182 102.42 91.061 102.993C89.9026 103.566 88.4979 103.745 87.1045 103.499L62.8791 99.2273C61.9086 99.0563 61.2606 98.1305 61.4317 97.1602C61.6028 96.1896 62.5283 95.5418 63.4988 95.7128L87.7244 99.9845C88.4468 100.112 89.0689 99.9972 89.4773 99.795C89.886 99.5925 89.97 99.3758 89.9853 99.2885C90.0005 99.2015 89.9961 98.97 89.6816 98.6403C89.3671 98.311 88.8215 97.9907 88.0983 97.8631L77.861 95.7019C76.8907 95.5309 76.2842 94.9686 76.4555 93.9983Z" fill="url(#paint11_linear_4010_3968)"/>
<path fill-rule="evenodd" clip-rule="evenodd" d="M96.1483 75.8314C96.5317 75.0079 97.4208 74.5448 98.3154 74.7024L106.308 76.1119C107.399 76.3043 108.128 77.3448 107.936 78.4365C107.743 79.5278 106.703 80.2564 105.611 80.064L99.1356 78.922L95.3103 87.1332C94.8425 88.138 93.6487 88.5727 92.644 88.105C91.6396 87.6369 91.2045 86.443 91.6726 85.4387L96.1483 75.8314Z" fill="url(#paint12_linear_4010_3968)"/>
<path d="M67.6593 106.336C70.0236 106.753 72.2782 105.174 72.6953 102.81C73.1119 100.445 71.5333 98.1909 69.169 97.7738C66.8047 97.3568 64.5501 98.9358 64.1332 101.3C63.7163 103.664 65.295 105.919 67.6593 106.336Z" fill="url(#paint13_linear_4010_3968)"/>
<path d="M94.3048 79.4602L64.8035 74.2584C62.5921 73.8685 60.6279 75.4562 60.7819 77.5066L61.1503 89.4722C61.2621 90.9533 62.4709 92.203 64.068 92.4845L89.7838 98.7544L96.9791 83.8946C98.637 80.8852 96.5215 79.8512 94.3048 79.4602Z" fill="url(#paint14_linear_4010_3968)"/>
<path d="M67.9164 104.19C69.1042 104.4 70.2369 103.607 70.4464 102.419C70.6558 101.231 69.8627 100.098 68.6748 99.889C67.487 99.6796 66.3543 100.473 66.1449 101.661C65.9354 102.848 66.7286 103.981 67.9164 104.19Z" fill="url(#paint15_linear_4010_3968)"/>
<mask id="mask0_4010_3968" style="mask-type:alpha" maskUnits="userSpaceOnUse" x="60" y="74" width="38" height="25">
<path d="M94.305 79.4602L64.8035 74.2584C62.5921 73.8685 60.6279 75.4562 60.7819 77.5066L61.1503 89.4722C61.2621 90.9533 62.4709 92.203 64.068 92.4845L89.7836 98.7544L96.9792 83.8946C97.826 82.0153 96.5216 79.8512 94.305 79.4602Z" fill="url(#paint16_linear_4010_3968)"/>
</mask>
<g mask="url(#mask0_4010_3968)">
<path d="M80.031 87.3507C80.1589 86.6731 80.8121 86.226 81.49 86.351C82.1676 86.4764 82.6132 87.1271 82.4853 87.8043L80.7966 96.7365C80.6687 97.4137 80.0154 97.8612 79.3379 97.7358C78.66 97.6108 78.2143 96.9601 78.3422 96.2829L80.031 87.3507Z" fill="#A259FF"/>
<path d="M102.069 81.5409C102.635 81.6391 103.016 82.1779 102.92 82.7442L102.851 83.1543C102.755 83.7206 102.218 84.1 101.652 84.0018L60.4027 76.8377C59.8368 76.7391 59.4559 76.2004 59.5519 75.6344L59.6214 75.2243C59.7174 74.658 60.254 74.2786 60.8198 74.3768L102.069 81.5409Z" fill="#A259FF"/>
<path d="M86.9724 88.6043C87.1003 87.9271 87.7535 87.4797 88.4311 87.605C89.109 87.7304 89.5546 88.3811 89.4264 89.0583L87.738 97.9905C87.6101 98.6677 86.9568 99.1152 86.2789 98.9898C85.6014 98.8648 85.1557 98.2141 85.2836 97.5369L86.9724 88.6043Z" fill="#A259FF"/>
<path d="M73.0896 86.0948C73.2175 85.4176 73.8707 84.9702 74.5483 85.0952C75.2262 85.2205 75.6718 85.8712 75.5436 86.5484L73.8552 95.4807C73.7273 96.1578 73.074 96.6053 72.3961 96.4803C71.7186 96.3549 71.2729 95.7042 71.4008 95.027L73.0896 86.0948Z" fill="#A259FF"/>
<path d="M66.0679 84.8585C66.1959 84.1813 66.8491 83.7338 67.5269 83.8588C68.2046 83.9842 68.6502 84.6349 68.5222 85.3121L66.8336 94.2443C66.7056 94.9215 66.0524 95.369 65.3747 95.244C64.697 95.1186 64.2513 94.4679 64.3794 93.7907L66.0679 84.8585Z" fill="#A259FF"/>
<path d="M59.9719 74.3831C60.1016 73.6476 60.8028 73.1567 61.5381 73.2864L97.5887 79.6429C98.3239 79.7726 98.8148 80.4741 98.6851 81.2092C98.5554 81.9447 97.8543 82.4357 97.1191 82.306L61.0686 75.9491C60.3333 75.8197 59.8423 75.1183 59.9719 74.3831Z" fill="url(#paint17_linear_4010_3968)"/>
</g>
<defs>
<filter id="filter0_f_4010_3968" x="0.636719" y="0.136719" width="163.797" height="163.797" filterUnits="userSpaceOnUse" color-interpolation-filters="sRGB">
<feFlood flood-opacity="0" result="BackgroundImageFix"/>
<feBlend mode="normal" in="SourceGraphic" in2="BackgroundImageFix" result="shape"/>
<feGaussianBlur stdDeviation="27" result="effect1_foregroundBlur_4010_3968"/>
</filter>
<filter id="filter1_f_4010_3968" x="34.0528" y="86.8185" width="88.7459" height="49.4705" filterUnits="userSpaceOnUse" color-interpolation-filters="sRGB">
<feFlood flood-opacity="0" result="BackgroundImageFix"/>
<feBlend mode="normal" in="SourceGraphic" in2="BackgroundImageFix" result="shape"/>
<feGaussianBlur stdDeviation="10.3437" result="effect1_foregroundBlur_4010_3968"/>
</filter>
<filter id="filter2_i_4010_3968" x="61.5762" y="53.4102" width="26.2576" height="34.8921" filterUnits="userSpaceOnUse" color-interpolation-filters="sRGB">
<feFlood flood-opacity="0" result="BackgroundImageFix"/>
<feBlend mode="normal" in="SourceGraphic" in2="BackgroundImageFix" result="shape"/>
<feColorMatrix in="SourceAlpha" type="matrix" values="0 0 0 0 0 0 0 0 0 0 0 0 0 0 0 0 0 0 127 0" result="hardAlpha"/>
<feOffset dx="2.38455" dy="5.56394"/>
<feGaussianBlur stdDeviation="5.96137"/>
<feComposite in2="hardAlpha" operator="arithmetic" k2="-1" k3="1"/>
<feColorMatrix type="matrix" values="0 0 0 0 0.104618 0 0 0 0 0.465612 0 0 0 0 0.545833 0 0 0 0.15 0"/>
<feBlend mode="normal" in2="shape" result="effect1_innerShadow_4010_3968"/>
</filter>
<filter id="filter3_i_4010_3968" x="75.1387" y="59.5273" width="29.4813" height="16.7877" filterUnits="userSpaceOnUse" color-interpolation-filters="sRGB">
<feFlood flood-opacity="0" result="BackgroundImageFix"/>
<feBlend mode="normal" in="SourceGraphic" in2="BackgroundImageFix" result="shape"/>
<feColorMatrix in="SourceAlpha" type="matrix" values="0 0 0 0 0 0 0 0 0 0 0 0 0 0 0 0 0 0 127 0" result="hardAlpha"/>
<feOffset dx="5.62585" dy="3.75056"/>
<feGaussianBlur stdDeviation="6.09467"/>
<feComposite in2="hardAlpha" operator="arithmetic" k2="-1" k3="1"/>
<feColorMatrix type="matrix" values="0 0 0 0 0.104618 0 0 0 0 0.465612 0 0 0 0 0.545833 0 0 0 0.09 0"/>
<feBlend mode="normal" in2="shape" result="effect1_innerShadow_4010_3968"/>
</filter>
<linearGradient id="paint0_linear_4010_3968" x1="49.9584" y1="37.834" x2="113.56" y2="51.0735" gradientUnits="userSpaceOnUse">
<stop stop-color="#A259FF"/>
<stop offset="1" stop-color="#3B3B3B"/>
</linearGradient>
<linearGradient id="paint1_linear_4010_3968" x1="94.4918" y1="104.62" x2="75.8849" y2="102.499" gradientUnits="userSpaceOnUse">
<stop stop-color="#A259FF" stop-opacity="0"/>
<stop offset="1" stop-color="#FF6250"/>
</linearGradient>
<linearGradient id="paint2_linear_4010_3968" x1="113.581" y1="58.8954" x2="118.918" y2="63.0873" gradientUnits="userSpaceOnUse">
<stop stop-color="#A259FF"/>
<stop offset="1" stop-color="#377DF7"/>
</linearGradient>
<linearGradient id="paint3_linear_4010_3968" x1="50.4327" y1="111.212" x2="50.2544" y2="116.522" gradientUnits="userSpaceOnUse">
<stop stop-color="#A259FF"/>
<stop offset="1" stop-color="#377DF7"/>
</linearGradient>
<linearGradient id="paint4_linear_4010_3968" x1="107.945" y1="102.057" x2="113.249" y2="101.752" gradientUnits="userSpaceOnUse">
<stop stop-color="#A259FF"/>
<stop offset="1" stop-color="#377DF7"/>
</linearGradient>
<radialGradient id="paint5_radial_4010_3968" cx="0" cy="0" r="1" gradientUnits="userSpaceOnUse" gradientTransform="translate(78.4258 111.553) rotate(90) scale(4.04753 23.6857)">
<stop stop-color="#2B2B2B"/>
<stop offset="1" stop-color="#2B2B2B" stop-opacity="0"/>
</radialGradient>
<linearGradient id="paint6_linear_4010_3968" x1="64.4398" y1="55.9925" x2="84.5036" y2="55.3742" gradientUnits="userSpaceOnUse">
<stop stop-color="#A259FF"/>
<stop offset="1" stop-color="#3B3B3B"/>
</linearGradient>
<linearGradient id="paint7_linear_4010_3968" x1="77.3082" y1="66.1808" x2="75.9911" y2="62.2769" gradientUnits="userSpaceOnUse">
<stop stop-color="#A259FF"/>
<stop offset="0.666667" stop-color="white"/>
</linearGradient>
<linearGradient id="paint8_linear_4010_3968" x1="79.1432" y1="76.4421" x2="77.8795" y2="72.6537" gradientUnits="userSpaceOnUse">
<stop stop-color="#A259FF"/>
<stop offset="0.666667" stop-color="white"/>
</linearGradient>
<linearGradient id="paint9_linear_4010_3968" x1="78.1919" y1="71.0554" x2="76.9281" y2="67.267" gradientUnits="userSpaceOnUse">
<stop stop-color="#A259FF"/>
<stop offset="0.666667" stop-color="white"/>
</linearGradient>
<linearGradient id="paint10_linear_4010_3968" x1="75.1387" y1="75.4944" x2="89.818" y2="53.4632" gradientUnits="userSpaceOnUse">
<stop stop-color="#A259FF"/>
<stop offset="1" stop-color="#FF6250"/>
</linearGradient>
<linearGradient id="paint11_linear_4010_3968" x1="86.77" y1="100.771" x2="81.7374" y2="77.1512" gradientUnits="userSpaceOnUse">
<stop stop-color="#A259FF"/>
<stop offset="0.666667" stop-color="white"/>
</linearGradient>
<linearGradient id="paint12_linear_4010_3968" x1="103.544" y1="78.8405" x2="115.16" y2="92.3611" gradientUnits="userSpaceOnUse">
<stop stop-color="#A259FF"/>
<stop offset="1" stop-color="#377DF7"/>
</linearGradient>
<linearGradient id="paint13_linear_4010_3968" x1="70.6374" y1="104.363" x2="60.708" y2="94.2184" gradientUnits="userSpaceOnUse">
<stop stop-color="#A259FF"/>
<stop offset="0.666667" stop-color="white"/>
</linearGradient>
<linearGradient id="paint14_linear_4010_3968" x1="88.0892" y1="92.7718" x2="68.1305" y2="52.9815" gradientUnits="userSpaceOnUse">
<stop stop-color="#A259FF"/>
<stop offset="0.666667" stop-color="white"/>
</linearGradient>
<linearGradient id="paint15_linear_4010_3968" x1="65.8262" y1="102.713" x2="72.0233" y2="103.907" gradientUnits="userSpaceOnUse">
<stop stop-color="white"/>
<stop offset="1" stop-color="#BCF3FF"/>
</linearGradient>
<linearGradient id="paint16_linear_4010_3968" x1="60.5227" y1="78.2066" x2="97.06" y2="85.1001" gradientUnits="userSpaceOnUse">
<stop stop-color="#AFF1FF"/>
<stop offset="1" stop-color="#65C8DE"/>
</linearGradient>
<linearGradient id="paint17_linear_4010_3968" x1="90.7608" y1="80.4081" x2="91.355" y2="72.885" gradientUnits="userSpaceOnUse">
<stop stop-color="#A259FF"/>
<stop offset="0.666667" stop-color="white"/>
</linearGradient>
</defs>
</svg>
