<!DOCTYPE svg PUBLIC "-//W3C//DTD SVG 1.1//EN" "http://www.w3.org/Graphics/SVG/1.1/DTD/svg11.dtd">
<!-- Uploaded to: SVG Repo, www.svgrepo.com, Transformed by: SVG Repo Mixer Tools -->
<svg fill="#000000" width="800px" height="800px" viewBox="0 0 32 32" style="fill-rule:evenodd;clip-rule:evenodd;stroke-linejoin:round;stroke-miterlimit:2;" version="1.1" xml:space="preserve" xmlns="http://www.w3.org/2000/svg" xmlns:serif="http://www.serif.com/" xmlns:xlink="http://www.w3.org/1999/xlink">
<g id="SVGRepo_bgCarrier" stroke-width="0"/>
<g id="SVGRepo_tracerCarrier" stroke-linecap="round" stroke-linejoin="round"/>
<g id="SVGRepo_iconCarrier"> <g transform="matrix(1,0,0,1,-96,-48)"> <g transform="matrix(1.13043,0,0,1.13043,-16.3043,-7.78261)"> <circle cx="113.5" cy="63.5" r="11.5" style="fill:#bf85e5;"/> </g> <path d="M112,50C104.273,50 98,56.273 98,64C98,71.727 104.273,78 112,78C119.727,78 126,71.727 126,64C126,56.273 119.727,50 112,50ZM112,52C118.623,52 124,57.377 124,64C124,70.623 118.623,76 112,76C105.377,76 100,70.623 100,64C100,57.377 105.377,52 112,52ZM116.356,66.032C117.442,66.229 118.165,67.27 117.968,68.356C117.771,69.442 116.73,70.165 115.644,69.968C114.558,69.771 113.835,68.73 114.032,67.644C114.229,66.558 115.27,65.835 116.356,66.032ZM116.293,58.293L106.293,68.293C105.903,68.683 105.903,69.317 106.293,69.707C106.683,70.097 107.317,70.097 107.707,69.707L117.707,59.707C118.097,59.317 118.097,58.683 117.707,58.293C117.317,57.903 116.683,57.903 116.293,58.293ZM108.356,58.032C109.442,58.229 110.165,59.27 109.968,60.356C109.771,61.442 108.73,62.165 107.644,61.968C106.558,61.771 105.835,60.73 106.032,59.644C106.229,58.558 107.27,57.835 108.356,58.032Z" style="fill:#5c2452;"/> </g> </g>
</svg>